<svg xmlns:inkscape="http://www.inkscape.org/namespaces/inkscape" xmlns:sodipodi="http://sodipodi.sourceforge.net/DTD/sodipodi-0.dtd" xmlns="http://www.w3.org/2000/svg" xmlns:svg="http://www.w3.org/2000/svg" viewBox="0 0 100 100" version="1.1" xml:space="preserve" x="0px" y="0px"><g><path style="" d="M 53.868014,86.435508 C 51.822251,86.137462 49.652248,85.139969 47.765392,83.6303 45.911665,82.147134 43.948298,79.570912 43.03628,77.425015 c -0.371264,-0.873554 -0.415326,-0.923376 -0.541539,-0.612354 -0.07557,0.186209 -0.16817,1.358866 -0.205785,2.60589 -0.07622,2.52683 0.08932,4.051491 0.622044,5.729048 0.187839,0.591497 0.316847,1.100119 0.286688,1.130278 -0.104108,0.104108 -1.594266,-0.269679 -2.415436,-0.605885 -4.324184,-1.770421 -7.939034,-6.433198 -8.947482,-11.54131 l -0.311654,-1.578613 -0.399385,0.887095 c -0.601934,1.336963 -1.359346,3.96664 -1.641816,5.700253 -0.138414,0.849503 -0.314706,1.544552 -0.391761,1.544552 -0.245923,0 -2.613722,-2.488022 -3.311883,-3.480054 -1.007319,-1.4313 -2.197884,-3.773146 -2.702462,-5.315746 -0.778181,-2.379056 -1.05197,-4.447847 -0.963693,-7.281768 0.04556,-1.462804 0.171653,-2.877354 0.312673,-3.507866 0.129973,-0.581117 0.210761,-1.132657 0.179523,-1.225644 -0.11212,-0.333754 -3.325132,3.118993 -4.640883,4.987156 -1.42422,2.022175 -1.332593,1.994419 -1.840269,0.557458 -0.676118,-1.913725 -0.862995,-4.889068 -0.476605,-7.588194 0.722168,-5.044698 3.194404,-9.67398 7.648871,-14.322577 0.853389,-0.890582 1.523849,-1.647009 1.489908,-1.680949 -0.07206,-0.07206 -1.889903,0.767724 -3.431153,1.585094 -1.64562,0.87272 -5.09169,3.188405 -6.844428,4.599309 -0.865684,0.696851 -1.64715,1.295084 -1.736592,1.329406 -0.22867,0.08775 -0.02778,-2.046662 0.337315,-3.58391 0.858417,-3.614394 2.610614,-6.729706 6.066726,-10.786304 0.562739,-0.660517 0.598419,-0.740162 0.288384,-0.6438 -0.450069,0.139888 -2.424678,0.855521 -2.805088,1.016613 -0.367454,0.155605 0.660468,-1.098672 1.946609,-2.375269 1.091339,-1.083235 4.091356,-3.505927 5.507293,-4.447461 0.539778,-0.358928 0.98141,-0.680675 0.98141,-0.714994 0,-0.149779 -3.176068,0.72459 -4.217656,1.161117 -0.297397,0.12464 -0.540726,0.180205 -0.540726,0.123478 0,-0.18065 3.199982,-3.258777 4.397903,-4.230434 6.394488,-5.186694 13.911634,-8.359501 22.710461,-9.585542 2.506132,-0.349208 8.684321,-0.350824 11.319183,-0.0029 4.833436,0.638126 8.687943,1.722552 12.120106,3.409871 2.41222,1.18589 4.14757,2.376331 5.87192,4.0281 1.06088,1.016226 2.69973,2.967309 2.69973,3.214089 0,0.0377 -0.63265,-0.239223 -1.40589,-0.615377 -2.11357,-1.028181 -2.6946,-1.20357 -4.00137,-1.207845 -1.33458,-0.0044 -2.24119,0.344764 -2.91477,1.122467 l -0.40167,0.463741 -1.369844,-0.331044 c -5.468539,-1.32156 -12.374835,-1.592277 -17.086916,-0.669782 -5.888503,1.152808 -10.209788,4.317191 -12.13754,8.88807 -0.263663,0.625167 -0.479383,1.16371 -0.479383,1.196762 0,0.03305 0.405543,-0.269387 0.901205,-0.672086 1.068347,-0.867965 2.530127,-1.638853 3.671262,-1.936081 0.549059,-0.143011 1.53362,-0.214437 2.955884,-0.214437 1.86085,0 2.132606,0.02947 2.132606,0.231253 0,0.127189 0.234419,0.677351 0.520927,1.222581 1.992763,3.792226 6.616513,4.770457 10.096895,2.136164 0.513107,-0.388371 0.959513,-0.706129 0.992011,-0.706129 0.103377,0 1.223382,1.708049 1.223382,1.865698 0,0.421791 -2.233639,1.675166 -3.898306,2.187479 -1.613439,0.496548 -3.830108,0.466367 -5.400787,-0.07353 -2.143702,-0.736873 -3.698102,-1.943571 -4.764143,-3.698461 l -0.540994,-0.890574 -1.328113,0.05809 c -1.133581,0.04958 -1.465187,0.12557 -2.263974,0.51881 -4.72631,2.326756 -5.520127,9.019127 -1.830385,15.431315 2.515429,4.371419 6.756165,7.35903 11.807678,8.318541 0.674106,0.128043 1.359569,0.260293 1.52326,0.293888 0.283086,0.0581 0.298335,0.161584 0.312363,2.119822 0.04006,5.588203 2.468604,11.398965 6.188885,14.807927 0.52828,0.48407 0.921469,0.919168 0.873761,0.966881 -0.109444,0.109438 -1.939119,-0.203573 -2.291113,-0.391951 -0.32578,-0.174351 -0.332096,-0.240927 0.09678,1.020028 0.413087,1.214527 1.158927,2.627194 1.895401,3.590015 l 0.510039,0.666793 -0.834342,0.04409 c -2.385607,0.126092 -5.890464,-2.011347 -7.698265,-4.694789 -0.277571,-0.412024 -0.562314,-0.750801 -0.632758,-0.752845 -0.07287,-0.0022 -0.09277,1.037539 -0.04616,2.411522 0.09389,2.768411 0.463955,4.658673 1.296187,6.620896 0.492115,1.160296 0.494959,1.178804 0.193437,1.259723 -0.344648,0.09249 -0.289561,0.09531 -1.45395,-0.07433 z M 42.50223,70.77067 c -0.01232,-1.169769 0.0261,-2.483732 0.08541,-2.919917 l 0.107819,-0.793063 -0.717737,-0.614569 -0.717732,-0.614569 -0.155184,0.542472 c -0.08535,0.29836 -0.195643,0.951349 -0.245095,1.451086 l -0.08991,0.908616 -0.494021,-0.476035 c -1.256764,-1.211017 -2.650994,-3.916171 -3.307649,-6.417674 -0.645794,-2.46014 -0.625673,-6.979615 0.04049,-9.091154 0.142606,-0.452031 -0.967977,1.314093 -1.325317,2.107601 -0.525909,1.167843 -0.773151,2.115917 -0.938918,3.600381 -0.499783,4.475548 1.90053,10.108723 5.523162,12.962056 0.717514,0.56514 2.085187,1.472858 2.230332,1.480257 0.01471,7.63e-4 0.01668,-0.955719 0.0044,-2.125488 z m 30.408381,-1.407545 c 1.55568,-3.595368 2.00711,-5.753512 1.99032,-9.515106 -0.0107,-2.40172 -0.053,-2.881972 -0.34284,-3.893222 -0.18184,-0.634452 -0.40141,-1.428317 -0.48793,-1.764146 -0.15579,-0.604656 -0.17139,-0.616438 -1.60303,-1.210521 -3.222881,-1.337383 -3.819719,-1.60415 -3.943212,-1.762472 -0.07097,-0.09099 -0.471056,-0.944082 -0.88908,-1.895758 -1.624976,-3.699423 -2.022345,-4.365515 -3.384415,-5.673157 -0.68912,-0.661587 -1.231962,-1.219903 -1.206298,-1.240701 1.363209,-1.104961 3.604065,-2.534115 8.265675,-5.27161 4.2997,-2.524968 5.96914,-3.631816 8.27033,-5.483264 l 1.63743,-1.317419 0.43276,0.40889 c 0.60141,0.568248 1.96776,2.258138 2.66234,3.292759 4.14315,6.171524 5.34153,13.086124 3.50976,20.251072 -1.5613,6.107013 -6.07711,11.919128 -11.77937,15.160774 -1.3135,0.746701 -3.44625,1.717957 -3.77241,1.717957 -0.0773,0 0.21063,-0.811834 0.63997,-1.804076 z m 8.54322,-8.649946 c 1.93129,-2.404487 3.2519,-5.243963 3.99023,-8.579508 0.3699,-1.671069 0.443,-5.226654 0.14692,-7.146203 -0.49568,-3.213587 -1.8962,-6.463188 -3.865,-8.967932 l -0.70878,-0.901731 -0.6,0.362479 c -0.32999,0.199363 -0.58465,0.424072 -0.56589,0.499353 0.0187,0.07528 0.25348,0.480161 0.52161,0.899735 1.8361,2.87316 2.91563,6.102899 3.26868,9.779251 0.48037,5.001974 -1.28928,11.464477 -4.38166,16.001167 l -0.4423,0.64887 0.97065,-0.86516 c 0.53386,-0.475838 1.28335,-1.254483 1.66554,-1.730321 z M 59.168605,58.933476 c -0.49176,-0.05214 -0.964936,-0.165683 -1.051495,-0.252304 -0.08656,-0.08662 -0.232092,-0.951623 -0.323404,-1.922227 -0.426749,-4.535923 0.832876,-8.98633 3.469487,-12.258156 l 0.282943,-0.351115 0.968637,0.927889 c 1.139112,1.091192 1.88375,2.302469 3.032318,4.93254 1.393243,3.19036 1.489591,3.286312 4.464969,4.44649 1.030981,0.402006 1.892041,0.748055 1.913461,0.768996 0.0214,0.02094 -0.41448,0.342292 -0.96867,0.714114 -1.952998,1.310321 -4.27274,2.286743 -6.496238,2.734387 -1.281026,0.257902 -4.033658,0.392822 -5.292008,0.259386 z M 54.109474,34.426088 c -0.739264,-0.292433 -1.634252,-1.132795 -1.99339,-1.871724 -0.150236,-0.309111 -0.284857,-0.978736 -0.318292,-1.583226 -0.05041,-0.911265 -0.008,-1.149663 0.326052,-1.832398 0.651375,-1.331356 1.941971,-2.125991 3.468877,-2.135822 3.475989,-0.02238 5.254094,4.10121 2.818636,6.536669 -1.090658,1.090657 -2.862654,1.455818 -4.301883,0.886501 z m 2.09607,-4.112244 c 0.460205,-0.414248 0.445594,-1.287259 -0.02948,-1.76235 -1.071142,-1.071142 -2.606643,0.506741 -1.661909,1.707777 0.456423,0.580246 1.084881,0.600523 1.691404,0.05457 z m 15.753127,0.53411 c -0.92796,-0.581263 -1.27766,-1.888439 -0.73588,-2.750702 0.83194,-1.324047 2.57145,-1.353712 3.43663,-0.05861 0.64057,0.958869 0.27956,2.326312 -0.74215,2.811145 -0.61573,0.292182 -1.49052,0.291362 -1.9586,-0.0019 z" fill="#548F11" stroke="white" stroke-width="1"/></g><text x="0" y="115" fill="#FFFFFF" font-size="5px" font-weight="bold" font-family="'Helvetica Neue', Helvetica, Arial-Unicode, Arial, Sans-serif"></text><text x="0" y="120" fill="#000000" font-size="5px" font-weight="bold" font-family="'Helvetica Neue', Helvetica, Arial-Unicode, Arial, Sans-serif"></text></svg>